<?xml version="1.0" encoding="iso-8859-1"?>
<!-- Generator: Adobe Illustrator 19.0.0, SVG Export Plug-In . SVG Version: 6.00 Build 0)  -->
<svg version="1.1" id="Capa_1" xmlns="http://www.w3.org/2000/svg" xmlns:xlink="http://www.w3.org/1999/xlink" x="0px" y="0px"
	 viewBox="0 0 512 512" style="enable-background:new 0 0 512 512;" xml:space="preserve">
<g>
	<g>
		<path d="M196,151h-75v90h75c24.814,0,45-20.186,45-45C241,171.186,220.814,151,196,151z"/>
	</g>
</g>
<g>
	<g>
		<path d="M467,0H45C20.186,0,0,20.186,0,45v422c0,24.814,20.186,45,45,45h422c24.814,0,45-20.186,45-45V45
			C512,20.186,491.814,0,467,0z M196,271h-75v105c0,8.291-6.709,15-15,15s-15-6.709-15-15V256V136c0-8.291,6.709-15,15-15h90
			c41.353,0,75,33.647,75,75C271,237.353,237.353,271,196,271z M406,211c8.291,0,15,6.709,15,15s-6.709,15-15,15h-45v135
			c0,8.291-6.709,15-15,15c-8.291,0-15-6.709-15-15V241h-15c-8.291,0-15-6.709-15-15s6.709-15,15-15h15v-45
			c0-24.814,20.186-45,45-45h30c8.291,0,15,6.709,15,15s-6.709,15-15,15h-30c-8.276,0-15,6.724-15,15v45H406z"/>
	</g>
</g>
<g>
</g>
<g>
</g>
<g>
</g>
<g>
</g>
<g>
</g>
<g>
</g>
<g>
</g>
<g>
</g>
<g>
</g>
<g>
</g>
<g>
</g>
<g>
</g>
<g>
</g>
<g>
</g>
<g>
</g>
</svg>
